#Comment line ignore any data following # character 
#Hierarchical Translation and Rotation (.htr) file 
[Header]	
#Header keywords are followed by a single value 
FileType HTR		#Single word string
DataType HTRS		#Translation followed by rotation and scale data
FileVersion 1		#integer
NumSegments 14		#integer
NumFrames 5		#integer
DataFrameRate 30		#integer, data frame rate in this file
EulerRotationOrder ZYX
CalibrationUnits mm
RotationUnits Degrees
GlobalAxisofGravity Y
BoneLengthAxis Y
ScaleFactor 1.00
[SegmentNames&Hierarchy]
#CHILD	PARENT
MASTER GLOBAL
weapon MASTER
barrel_root weapon
middle_left_energyLow_part1 weapon
middle_left_energyLow_part2 weapon
middle_left_root weapon
middle_right_energyLow_part1 weapon
middle_top weapon
barrel1_top_root barrel_root
barrel2_top_root barrel_root
barrel3_top_root barrel_root
barrel1_top_back barrel1_top_root
barrel2_top_back barrel2_top_root
barrel3_top_back barrel3_top_root
[BasePosition]
#SegmentName Tx, Ty, Tz, Rx, Ry, Rz, BoneLength
MASTER 0.000000 0.000000 0.000000 -90.000000 0.000000 0.000000 10.000000 
weapon 0.000000 0.000000 0.000000 0.000000 0.000000 0.000000 10.000000 
barrel_root 0.000000 0.000000 0.000000 0.000000 0.000000 0.000000 10.000000 
middle_left_energyLow_part1 0.000000 0.000000 0.000000 0.000000 0.000000 0.000000 10.000000 
middle_left_energyLow_part2 0.000000 0.000000 0.000000 0.000000 0.000000 0.000000 10.000000 
middle_left_root 0.000000 0.000000 0.000000 0.000000 0.000000 0.000000 10.000000 
middle_right_energyLow_part1 0.000000 0.000000 0.000000 0.000000 0.000000 0.000000 10.000000 
middle_top 0.000000 0.000000 0.000000 0.000000 0.000000 0.000000 10.000000 
barrel1_top_root 0.000000 0.000000 0.000000 0.000000 0.000000 0.000000 10.000000 
barrel2_top_root 0.000000 0.000000 0.000000 0.000000 0.000000 0.000000 10.000000 
barrel3_top_root 0.000000 0.000000 0.000000 0.000000 0.000000 0.000000 10.000000 
barrel1_top_back 0.000000 0.000000 0.000000 0.000000 0.000000 0.000000 10.000000 
barrel2_top_back 0.000000 0.000000 0.000000 0.000000 0.000000 0.000000 10.000000 
barrel3_top_back 0.000000 0.000000 0.000000 0.000000 0.000000 0.000000 10.000000 
#Beginning of Data. Separated by tabs
#Fr	Tx	Ty	Tz	Rx	Ry	Rz	SF
[MASTER]
62 0.000000 0.000000 0.000000 0.000000 -0.000000 0.000000 0.000000
63 0.000000 0.000000 0.000000 0.000000 -0.000000 0.000000 0.000000
64 0.000000 0.000000 0.000000 0.000000 -0.000000 0.000000 0.000000
65 0.000000 0.000000 0.000000 0.000000 -0.000000 0.000000 0.000000
66 0.000000 0.000000 0.000000 0.000000 -0.000000 0.000000 0.000000
[weapon]
62 0.000019 -104.980545 30.104675 0.000000 0.000000 -0.000020 109.211746
63 0.000000 -104.980385 30.104521 0.000000 0.000000 -0.000020 109.211555
64 -0.000000 -104.980469 30.104752 0.000000 0.000000 -0.000020 109.211700
65 -0.000019 -104.980385 30.104597 0.000000 0.000000 -0.000020 109.211578
66 -0.000019 -104.980545 30.104675 0.000000 0.000000 -0.000020 109.211746
[barrel_root]
62 0.000044 311.407196 -55.258572 0.001430 -20.262266 0.001430 316.271973
63 0.000038 312.880005 -55.258556 0.001583 -5.673302 0.001583 317.722229
64 0.000024 314.186829 -55.258575 0.001824 9.925287 0.001824 319.009216
65 0.000010 315.493652 -55.258595 0.002224 26.305752 0.002224 320.296356
66 -0.000005 316.800476 -55.258617 0.002958 43.252594 0.002958 321.583679
[middle_left_energyLow_part1]
62 -103.826530 -30.653076 67.759705 0.001406 -23.142891 0.001406 127.714279
63 -103.617722 -30.653152 68.988808 0.001399 -24.067507 0.001399 128.201813
64 -103.546692 -30.653229 69.983910 0.001392 -24.998789 0.001392 128.682892
65 -104.322548 -30.653152 71.125107 0.001353 -30.275679 0.001353 129.929169
66 -106.119423 -30.653229 72.327652 0.001298 -39.369354 0.001298 132.031219
[middle_left_energyLow_part2]
62 -131.883377 -31.669769 36.652237 0.005190 63.860714 0.005190 140.497635
63 -131.213226 -31.728861 38.668793 0.005430 65.035751 0.005430 140.424042
64 -130.543091 -31.787947 40.685356 0.005670 66.106453 0.005670 140.382584
65 -129.965256 -31.838913 42.424393 0.005906 67.076828 0.005906 140.372772
66 -129.453415 -31.884155 43.964306 0.006132 67.933388 0.006132 140.383942
[middle_left_root]
62 -154.134811 -30.653000 11.545412 0.005404 -64.912651 179.994598 157.576782
63 -154.594254 -30.653000 11.854095 0.005417 -64.977119 179.994583 158.049072
64 -154.820465 -30.653000 11.900203 0.005422 -65.000549 179.994583 158.273819
65 -144.031906 -30.652962 -1.283913 0.003461 -50.000256 179.996536 147.263184
66 -133.243317 -30.652924 -14.468079 0.002542 -34.999905 179.997467 137.487137
[middle_right_energyLow_part1]
62 94.421059 -29.615173 67.759865 0.002130 -23.146284 179.997879 119.932457
63 94.212280 -29.615250 68.988960 0.002157 -24.065844 179.997849 120.467804
64 94.141212 -29.615326 69.984062 0.002184 -25.002186 179.997818 120.985146
65 94.917130 -29.615326 71.125107 0.002357 -30.274008 179.997650 122.250191
66 96.714020 -29.615173 72.327797 0.002745 -39.372890 179.997269 124.346169
[middle_top]
62 -3.220501 -56.037907 59.132229 4.488548 0.001593 0.001723 81.530602
63 -3.220463 -56.494976 59.132381 4.602387 0.001592 0.001725 81.845543
64 -3.220520 -56.650539 59.132458 4.716232 0.001590 0.001727 81.953049
65 -3.220482 -55.470577 58.178635 4.825130 0.001588 0.001728 80.449425
66 -3.220482 -52.146759 55.542221 4.934034 0.001587 0.001730 76.253487
[barrel1_top_root]
62 0.000081 96.240509 0.000132 0.000000 -0.000000 0.000000 96.240509
63 0.000081 96.240509 0.000132 0.000000 -0.000000 0.000000 96.240509
64 0.000081 96.240509 0.000132 0.000000 -0.000000 0.000000 96.240509
65 0.000081 96.240509 0.000132 0.000000 -0.000000 0.000000 96.240509
66 0.000081 96.240509 0.000132 0.000000 -0.000000 0.000000 96.240509
[barrel2_top_root]
62 -0.000009 124.139923 0.000132 0.001191 -70.434677 0.001191 124.139923
63 -0.000009 124.139923 0.000132 0.001187 -72.739479 0.001187 124.139923
64 -0.000009 124.139923 0.000132 0.001182 -76.224754 0.001182 124.139923
65 -0.000009 124.139923 0.000132 0.001178 -80.584038 0.001178 124.139923
66 -0.000009 124.139923 0.000132 0.001174 -85.539284 0.001174 124.139923
[barrel3_top_root]
62 0.000101 69.591400 0.000123 0.007105 70.984489 0.007105 69.591400
63 0.000101 69.591400 0.000123 0.008879 74.808960 0.008879 69.591400
64 0.000101 69.591400 0.000123 0.014296 80.581947 0.014296 69.591400
65 0.000101 69.591400 0.000123 0.061752 87.821739 0.061752 69.591400
66 0.000101 69.591400 0.000123 179.977707 83.963821 179.977707 69.591400
[barrel1_top_back]
62 -3.343935 98.041893 186.671844 -30.906351 0.002042 0.001157 210.878571
63 -3.343935 98.041893 186.671844 -31.769304 0.002051 0.001142 210.878571
64 -3.343935 98.041893 186.671844 -32.608326 0.002059 0.001127 210.878571
65 -3.343935 98.041893 186.671844 -33.423332 0.002067 0.001112 210.878571
66 -3.343935 98.041893 186.671844 -34.214230 0.002075 0.001098 210.878571
[barrel2_top_back]
62 3.886122 70.142326 185.630630 -15.740453 0.001871 0.001417 198.478668
63 3.886122 70.142326 185.630630 -16.179935 0.001877 0.001410 198.478668
64 3.886122 70.142326 185.630630 -16.604649 0.001882 0.001403 198.478668
65 3.886122 70.142326 185.630630 -17.024601 0.001887 0.001396 198.478668
66 3.886122 70.142326 185.630630 -17.419876 0.001892 0.001389 198.478668
[barrel3_top_back]
62 -0.050068 125.495209 180.152344 -23.572170 0.001964 0.001286 219.553894
63 -0.050068 125.495209 180.152344 -24.254641 0.001971 0.001274 219.553894
64 -0.050068 125.495209 180.152344 -24.917728 0.001979 0.001263 219.553894
65 -0.050068 125.495209 180.152344 -25.571526 0.001986 0.001251 219.553894
66 -0.050068 125.495209 180.152344 -26.205853 0.001993 0.001240 219.553894
